<svg width="39" height="38" viewBox="0 0 39 38" fill="none" xmlns="http://www.w3.org/2000/svg">
<path d="M32.3375 4.89446C32.1377 4.05791 31.7654 3.2697 31.2431 2.57776C30.7209 1.88582 30.0596 1.30461 29.2996 0.869484C28.5396 0.434353 27.6967 0.154393 26.8222 0.0466297C25.9477 -0.061134 25.0598 0.00555035 24.2125 0.242628L21.411 1.02321C20.7013 1.22195 20.0477 1.57614 19.5 2.05871C18.9523 1.57614 18.2987 1.22195 17.589 1.02321L14.7875 0.242628C13.9408 0.00678599 13.0537 -0.0589477 12.1801 0.0494163C11.3065 0.15778 10.4646 0.437982 9.7055 0.873013C8.9465 1.30804 8.286 1.88883 7.7643 2.58012C7.2426 3.27141 6.8705 4.05879 6.6706 4.89446C4.8015 5.22579 3.1107 6.18481 1.892 7.60481C0.673398 9.0248 0.0039 10.816 0 12.667V23.7504C0.0026 25.8492 0.859399 27.8614 2.3826 29.3455C3.9058 30.8297 5.9709 31.6645 8.125 31.667H17.875V34.8337H13C12.569 34.8337 12.1557 35.0005 11.851 35.2975C11.5462 35.5944 11.375 35.9971 11.375 36.417C11.375 36.837 11.5462 37.2397 11.851 37.5366C12.1557 37.8336 12.569 38.0004 13 38.0004H26C26.431 38.0004 26.8443 37.8336 27.149 37.5366C27.4538 37.2397 27.625 36.837 27.625 36.417C27.625 35.9971 27.4538 35.5944 27.149 35.2975C26.8443 35.0005 26.431 34.8337 26 34.8337H21.125V31.667H30.875C33.0291 31.6645 35.0942 30.8297 36.6174 29.3455C38.1406 27.8614 38.9974 25.8492 39 23.7504V12.667C38.9965 10.8171 38.3281 9.02684 37.1111 7.607C35.894 6.18717 34.2051 5.22744 32.3375 4.89446ZM21.125 5.59113C21.1252 5.24725 21.2402 4.91277 21.4528 4.63826C21.6653 4.36374 21.9638 4.16411 22.3031 4.06954L25.1062 3.28896C25.59 3.15415 26.0992 3.13061 26.5939 3.22019C27.0886 3.30977 27.5551 3.51004 27.9568 3.80521C28.3585 4.10038 28.6844 4.48239 28.9088 4.92116C29.1332 5.35993 29.25 5.84348 29.25 6.33371V12.5689C29.2477 13.256 29.0169 13.9238 28.592 14.4722C28.1672 15.0206 27.5713 15.42 26.8937 15.6105L21.125 17.216V5.59113ZM11.05 3.80038C11.4509 3.50628 11.9165 3.30699 12.41 3.21824C12.9036 3.12949 13.4115 3.1537 13.8938 3.28896L16.6969 4.06954C17.0362 4.16411 17.3347 4.36374 17.5472 4.63826C17.7598 4.91277 17.8748 5.24725 17.875 5.59113V17.216L12.1062 15.6105C11.4287 15.42 10.8328 15.0206 10.408 14.4722C9.9831 13.9238 9.7523 13.256 9.75 12.5689V6.33371C9.7483 5.84182 9.8651 5.3564 10.0909 4.91644C10.3166 4.47648 10.6451 4.09422 11.05 3.80038ZM35.75 23.7504C35.75 25.0102 35.2364 26.2183 34.3221 27.1091C33.4079 27.9999 32.1679 28.5004 30.875 28.5004H8.125C6.8321 28.5004 5.5921 27.9999 4.6779 27.1091C3.7636 26.2183 3.25 25.0102 3.25 23.7504V12.667C3.2542 11.6881 3.5686 10.7344 4.1504 9.93627C4.7321 9.13816 5.5528 8.53468 6.5 8.20838V12.5689C6.504 13.9437 6.9654 15.2803 7.8151 16.378C8.6648 17.4756 9.8569 18.2752 11.2125 18.6568L16.8204 20.2195C18.573 20.7063 20.4303 20.7063 22.1829 20.2195L27.7907 18.6568C29.1458 18.2747 30.3371 17.4748 31.1862 16.3772C32.0352 15.2796 32.4962 13.9433 32.5 12.5689V8.20838C33.4472 8.53468 34.2678 9.13816 34.8496 9.93627C35.4314 10.7344 35.7458 11.6881 35.75 12.667V23.7504Z" fill="#00539C"/>
</svg>
